<?xml version="1.0" standalone="no"?>
<!DOCTYPE svg PUBLIC "-//W3C//DTD SVG 20010904//EN"
 "http://www.w3.org/TR/2001/REC-SVG-20010904/DTD/svg10.dtd">
<svg version="1.0" xmlns="http://www.w3.org/2000/svg"
 width="1732.000000pt" height="2200.000000pt" viewBox="0 0 1732.000000 2200.000000"
 preserveAspectRatio="xMidYMid meet">

<g transform="translate(0.000000,2200.000000) scale(0.100000,-0.100000)"
fill="#000000" stroke="none">
<path d="M0 11000 l0 -11000 8660 0 8660 0 0 11000 0 11000 -8660 0 -8660 0 0
-11000z m11295 10455 c51 -153 97 -336 122 -490 28 -169 25 -549 -4 -705 -25
-131 -69 -282 -110 -385 -23 -55 -33 -70 -48 -68 -11 1 -74 18 -140 38 -143
44 -390 96 -570 121 -71 10 -131 19 -133 20 -2 1 52 55 119 120 429 420 634
868 665 1459 l7 130 25 -55 c13 -30 43 -113 67 -185z m-4685 -245 c44 -484
236 -903 579 -1262 l99 -104 -112 -28 c-217 -55 -412 -123 -560 -197 -72 -36
-81 -39 -92 -24 -22 30 -93 258 -121 390 -26 123 -27 143 -27 395 -1 286 5
335 64 587 29 123 120 407 143 447 11 19 12 15 14 -34 2 -30 8 -107 13 -170z
m2770 -1484 c0 -2 -13 -32 -29 -67 -39 -88 -70 -190 -82 -275 -25 -184 53
-343 206 -418 130 -64 231 -57 511 35 99 33 212 66 250 74 89 19 232 19 312 0
133 -32 271 -115 308 -186 7 -15 30 -72 49 -126 39 -108 88 -188 145 -233 112
-88 274 -131 417 -110 95 15 175 46 253 99 53 37 60 39 69 23 16 -31 188 -552
250 -757 214 -710 426 -1597 632 -2633 l42 -214 -27 -141 c-207 -1083 -729
-1953 -1558 -2600 -66 -51 -119 -81 -224 -127 -213 -92 -431 -217 -632 -362
-85 -62 -127 -82 -324 -154 -312 -114 -664 -195 -1038 -241 -227 -28 -748 -25
-970 5 -434 59 -767 156 -1105 322 -201 99 -413 237 -559 363 l-21 19 26 -6
c52 -11 296 -45 434 -60 1262 -138 3094 -3 3999 295 334 110 517 229 648 422
264 389 366 1144 268 1997 -67 584 -220 1106 -385 1312 -269 336 -1165 528
-2465 528 -1120 0 -2436 -151 -3172 -364 -82 -23 -118 -30 -118 -21 0 18 141
572 205 805 97 354 158 551 167 538 4 -7 8 -22 8 -34 0 -37 50 -222 79 -292
59 -144 163 -270 273 -335 146 -85 350 -111 898 -112 384 0 629 13 725 40 145
41 253 181 370 480 26 66 65 165 86 220 54 135 111 229 162 266 36 27 48 30
90 26 96 -9 165 -111 283 -422 131 -345 225 -490 359 -555 76 -37 307 -54 740
-54 541 -1 738 20 891 94 274 133 415 473 418 1005 1 208 -12 263 -84 336 -38
39 -58 51 -130 74 -213 66 -457 89 -955 90 -440 0 -545 -9 -840 -71 -405 -85
-587 -103 -848 -84 -168 11 -240 23 -492 76 -275 58 -425 74 -745 81 -398 8
-788 -16 -982 -62 -34 -8 -63 -13 -64 -12 -4 4 149 395 216 552 36 83 92 204
125 270 54 109 66 125 129 177 306 256 1177 446 2276 497 178 9 530 13 530 7z
m4027 -496 c4 -152 2 -220 -11 -310 -49 -331 -180 -645 -382 -917 -78 -104
-260 -290 -359 -368 -100 -78 -194 -140 -201 -133 -3 3 -37 113 -75 244 -92
314 -245 772 -354 1063 -65 173 -85 235 -75 241 6 4 46 10 89 14 218 19 549
82 751 143 195 59 439 167 559 249 l36 24 8 -27 c5 -16 11 -116 14 -223z
m-7642 -118 c17 -59 35 -118 39 -131 l8 -23 -83 6 c-144 12 -361 37 -423 49
l-60 13 120 52 c167 73 358 150 363 145 3 -2 19 -52 36 -111z m-921 -281 c254
-89 578 -145 924 -158 89 -3 162 -10 162 -14 0 -5 -14 -43 -31 -86 -107 -269
-314 -878 -404 -1193 -26 -91 -51 -171 -55 -178 -5 -10 -34 7 -109 63 -428
323 -715 818 -781 1345 -11 89 -14 333 -4 342 3 3 51 -16 107 -42 56 -26 142
-62 191 -79z m-550 -451 c26 -140 107 -377 181 -525 67 -136 172 -305 258
-415 131 -168 363 -380 543 -498 l81 -52 -44 -168 c-24 -92 -73 -288 -109
-437 -36 -148 -67 -278 -70 -287 -3 -10 -38 -35 -77 -55 -83 -44 -193 -143
-247 -223 -149 -220 -222 -518 -235 -970 -3 -96 -8 -176 -10 -178 -2 -2 -68
-30 -147 -61 -198 -80 -359 -155 -593 -275 -356 -184 -840 -473 -907 -543 -97
-101 -466 -731 -708 -1208 -537 -1060 -889 -2124 -1079 -3260 -36 -214 -90
-590 -92 -634 -1 -52 -215 579 -288 852 -131 490 -212 962 -258 1497 -13 153
-17 312 -17 630 -1 430 6 564 44 915 237 2158 1329 4133 3041 5501 252 202
696 512 709 497 4 -5 14 -51 24 -103z m9314 -277 c535 -408 1039 -900 1447
-1411 824 -1031 1375 -2213 1635 -3504 22 -108 40 -203 40 -209 0 -7 -73 59
-162 147 -263 259 -515 459 -908 719 -400 265 -728 453 -1220 699 -501 250
-864 405 -1247 531 l-198 65 -49 243 c-114 566 -240 1124 -351 1567 -36 140
-60 256 -55 258 29 10 188 113 267 173 250 190 493 476 626 736 23 46 44 83
45 83 2 0 61 -44 130 -97z m-4303 -1913 c747 -33 1229 -118 1520 -268 92 -48
189 -145 237 -237 168 -326 288 -1010 288 -1641 0 -423 -49 -755 -147 -1004
-74 -186 -178 -306 -338 -387 -425 -215 -1360 -374 -2495 -424 -295 -13 -1076
-7 -1305 10 -972 73 -1553 234 -1792 494 -58 64 -74 95 -120 230 -99 294 -201
827 -245 1277 -20 209 -17 716 5 858 35 224 97 383 189 486 41 46 70 66 152
106 449 218 1410 396 2556 475 477 33 1088 43 1495 25z m-7227 -5702 c-69
-192 -308 -888 -320 -934 -12 -42 -13 -44 -107 -84 -53 -23 -111 -51 -130 -61
-18 -11 -35 -18 -37 -17 -5 6 81 398 131 598 73 291 146 544 161 556 8 6 65
19 127 28 61 10 119 19 127 21 8 1 32 3 52 4 l37 1 -41 -112z m5889 -113 c110
-15 349 -59 383 -71 8 -3 -21 -20 -68 -39 -201 -82 -322 -204 -339 -343 -7
-65 25 -170 71 -233 73 -99 172 -114 416 -63 108 22 162 28 270 29 120 0 140
-2 175 -22 83 -44 107 -91 136 -261 24 -136 42 -193 80 -248 56 -81 181 -138
309 -138 119 -1 183 43 332 226 182 225 249 269 586 383 l82 28 138 -59 c417
-179 982 -486 1622 -882 571 -353 657 -402 706 -402 54 0 55 58 3 157 -98 187
-377 469 -713 722 -138 104 -410 288 -534 361 -54 32 -72 47 -67 59 13 34 157
281 164 281 21 0 394 -122 596 -195 892 -323 1598 -719 2170 -1216 151 -131
427 -417 549 -569 130 -162 310 -431 399 -595 36 -66 78 -141 95 -167 l29 -46
-95 -154 c-212 -343 -575 -782 -976 -1183 -486 -485 -1013 -896 -1592 -1243
l-171 -102 -99 10 c-125 14 -317 52 -459 91 -169 47 -329 100 -337 113 -22 33
2 248 39 347 34 92 102 168 186 208 34 16 118 45 187 65 257 72 327 106 441
214 183 172 269 382 256 622 -10 183 -70 349 -164 450 -105 114 -193 140 -483
140 -107 0 -224 5 -260 10 -90 15 -165 53 -202 104 -71 98 -82 160 -83 496 -1
231 -4 285 -19 339 -52 188 -153 280 -381 347 -119 35 -259 37 -355 6 -154
-50 -257 -151 -453 -441 -149 -222 -238 -320 -332 -366 l-60 -30 -205 0 c-240
0 -279 -9 -359 -81 -121 -109 -125 -319 -12 -559 44 -92 99 -169 209 -293 161
-180 202 -244 202 -315 0 -79 -77 -200 -156 -244 l-39 -22 -70 43 c-551 339
-897 568 -1112 735 -928 721 -1611 1453 -2245 2406 -195 293 -201 301 -238
320 -34 18 -209 43 -387 56 -82 5 -168 13 -193 16 -43 5 -44 5 -23 21 637 501
969 727 1363 927 452 228 740 295 1087 250z m-4536 -965 c370 -29 754 -103
1092 -210 123 -39 157 -60 100 -60 -44 0 -261 -48 -348 -76 -176 -58 -345
-167 -345 -223 0 -87 168 -107 480 -57 268 43 526 75 719 87 248 17 519 -2
768 -52 l52 -10 66 -105 c587 -920 1412 -1829 2247 -2474 53 -41 97 -77 97
-80 1 -6 -293 -179 -559 -328 -1061 -596 -1955 -950 -2720 -1077 -266 -44
-343 -50 -660 -50 -338 1 -464 14 -712 76 -142 36 -186 57 -299 146 l-82 66
24 18 c52 39 138 72 273 106 82 20 175 51 222 74 147 70 255 212 330 434 36
105 38 214 5 296 -50 130 -213 271 -456 395 -257 131 -367 224 -439 367 -69
138 -87 272 -79 588 6 223 -7 328 -53 425 -85 181 -380 312 -584 260 -131 -33
-217 -117 -341 -329 -104 -177 -139 -221 -201 -251 -71 -34 -176 -51 -261 -42
l-68 8 -64 129 c-126 251 -230 518 -277 709 -36 143 -24 330 48 796 l16 102
73 4 c62 4 88 12 177 56 313 153 669 246 1078 281 141 12 527 12 681 1z m185
-5585 c219 -618 214 -605 222 -605 4 0 93 254 197 565 l190 565 313 0 312 0 0
-885 0 -885 -212 0 -211 0 6 626 c3 344 2 622 -1 619 -4 -4 -109 -284 -234
-623 l-226 -617 -152 0 -152 0 -224 625 -223 625 -1 -627 0 -628 -200 0 -200
0 0 885 0 885 306 -2 306 -3 184 -520z m5599 -47 c348 -568 350 -571 353 -527
2 24 2 281 0 572 l-3 527 213 0 212 0 0 -547 c0 -302 -3 -700 -7 -885 l-6
-338 -241 0 -241 1 -108 177 c-218 356 -595 963 -602 970 -4 4 -4 -253 0 -570
l7 -578 -211 0 -211 0 0 885 0 885 248 0 247 0 350 -572z m2325 392 l0 -180
-390 0 -390 0 0 -170 0 -170 365 0 365 0 0 -170 0 -170 -365 0 -365 0 0 -185
0 -185 410 0 410 0 0 -180 0 -180 -620 0 -620 0 0 885 0 885 600 0 600 0 0
-180z m1580 0 l0 -180 -250 0 -250 0 0 -705 0 -705 -215 0 -215 0 0 705 0 705
-250 0 -250 0 0 180 0 180 715 0 715 0 0 -180z m-7065 -333 c334 -109 512
-422 439 -774 -50 -243 -231 -430 -484 -499 -89 -25 -290 -25 -380 -1 -241 64
-421 241 -480 473 -27 103 -27 245 0 348 59 232 237 405 477 466 115 29 316
23 428 -13z m1531 13 c255 -64 436 -243 489 -486 23 -101 16 -271 -14 -364
-92 -288 -381 -476 -701 -457 -192 12 -339 74 -460 196 -130 131 -191 283
-192 477 0 318 203 570 517 639 95 21 268 19 361 -5z m-2734 -2662 l3 -231 79
101 79 102 100 0 100 0 -19 -22 c-23 -26 -141 -164 -162 -190 -12 -14 -1 -32
87 -152 l101 -136 -103 0 -102 0 -82 122 -83 122 0 -122 0 -122 -85 0 -85 0 0
373 c0 206 3 377 7 380 3 4 42 7 84 7 l79 0 2 -232z m1593 -42 c44 -124 82
-223 85 -221 3 2 39 103 80 224 l75 221 123 0 122 0 0 -355 0 -355 -80 0 -80
0 -2 250 -3 251 -90 -248 -91 -248 -61 -3 -60 -3 -51 143 c-29 79 -70 193 -91
253 l-40 110 0 -252 -1 -253 -80 0 -80 0 0 355 0 355 123 0 123 0 79 -224z
m4125 -11 c30 -129 57 -229 61 -222 3 6 32 112 65 235 l59 223 90 -3 90 -3 57
-214 c31 -117 60 -221 64 -230 4 -10 29 73 63 214 l57 230 87 3 c66 2 87 0 87
-10 0 -7 -45 -166 -98 -353 l-98 -340 -85 -3 -85 -3 -69 240 c-39 132 -72 238
-73 236 -2 -2 -34 -109 -72 -237 l-67 -233 -86 -3 c-75 -2 -86 -1 -91 15 -3
10 -46 161 -95 337 -50 175 -93 327 -96 337 -6 18 0 19 87 19 l93 0 55 -235z
m1980 0 l0 -235 -85 0 -85 0 0 235 0 235 85 0 85 0 0 -235z m-2590 90 l0 -65
60 0 60 0 0 -60 0 -60 -60 0 -60 0 0 -113 c0 -139 11 -162 71 -154 l39 5 0
-58 c0 -56 -1 -58 -31 -64 -93 -18 -179 8 -214 66 -16 28 -20 56 -23 176 l-4
142 -39 0 -39 0 0 60 0 60 40 0 40 0 0 65 0 65 80 0 80 0 0 -65z m-6393 -66
c15 -5 42 -24 59 -40 l30 -29 20 21 c27 31 92 59 138 59 54 0 116 -32 146 -77
24 -35 25 -42 28 -235 l3 -198 -80 0 -80 0 -3 164 c-3 145 -5 166 -22 185 -26
29 -71 27 -101 -4 -24 -24 -25 -28 -25 -185 l0 -160 -85 0 -85 0 0 156 c0 186
-9 213 -72 214 -17 0 -35 -10 -52 -31 -26 -30 -26 -33 -26 -185 l0 -154 -85 0
-85 0 0 245 0 245 80 0 80 0 0 -32 0 -32 33 31 c17 18 43 36 57 42 34 13 92
13 127 0z m886 -14 c83 -39 107 -117 107 -341 l0 -144 -75 0 -75 0 0 32 0 32
-27 -26 c-128 -122 -360 8 -286 159 32 67 99 98 231 110 57 5 72 9 72 22 -1
60 -92 80 -169 36 l-43 -25 -38 42 c-42 47 -40 57 14 85 89 46 214 54 289 18z
m1172 -3 c76 -39 122 -115 132 -217 l6 -65 -182 0 c-193 0 -198 -1 -165 -48
38 -55 119 -67 178 -27 l36 24 50 -31 c32 -20 50 -37 48 -47 -5 -27 -105 -79
-165 -87 -70 -8 -126 1 -191 32 -84 41 -132 124 -132 228 1 119 66 211 177
252 52 20 157 13 208 -14z m1596 -119 c0 -87 5 -162 12 -183 21 -60 99 -67
134 -13 15 22 19 55 21 185 l4 158 79 0 79 0 0 -255 0 -255 -80 0 -80 0 0 37
0 37 -16 -23 c-22 -30 -89 -61 -137 -61 -78 0 -145 52 -167 128 -5 20 -10 117
-10 215 l0 177 80 0 80 0 1 -147z m610 0 c0 -87 5 -162 12 -183 21 -60 99 -67
134 -13 15 22 19 55 21 185 l4 158 79 0 79 0 0 -255 0 -255 -80 0 -80 0 0 37
0 37 -16 -23 c-22 -30 -89 -61 -137 -61 -78 0 -145 52 -167 128 -5 20 -10 117
-10 215 l0 177 80 0 80 0 1 -147z m1099 125 c35 -18 51 -35 70 -73 23 -47 25
-62 28 -232 l4 -183 -86 0 -86 0 0 160 c0 157 -1 161 -25 185 -33 33 -70 32
-106 -4 l-29 -29 0 -156 0 -156 -85 0 -85 0 0 245 0 245 80 0 80 0 0 -32 0
-32 33 32 c57 56 134 66 207 30z m600 -5 c171 -76 203 -313 59 -436 -102 -88
-266 -88 -367 -1 -57 48 -84 104 -90 184 -11 164 117 287 288 277 36 -2 85
-13 110 -24z m2193 2 c83 -39 107 -117 107 -341 l0 -144 -75 0 -75 0 0 32 0
32 -27 -26 c-128 -122 -360 8 -286 159 32 67 99 98 231 110 57 5 72 9 72 22
-1 60 -92 80 -169 36 l-43 -25 -38 42 c-42 47 -40 57 14 85 89 46 214 54 289
18z m557 -45 l0 -70 -37 0 c-47 0 -100 -31 -113 -66 -6 -14 -10 -88 -10 -165
l0 -139 -85 0 -85 0 2 248 3 247 78 3 77 3 0 -38 0 -38 23 27 c28 35 73 58
115 58 l32 0 0 -70z m251 -288 c25 -22 31 -36 31 -67 0 -31 -6 -45 -31 -67
-48 -43 -118 -32 -147 23 -17 34 -17 57 0 88 31 55 99 66 147 23z"/>
<path d="M9103 15875 c-149 -46 -300 -226 -347 -411 -23 -88 -21 -207 5 -289
17 -55 31 -78 72 -120 61 -60 116 -80 205 -73 160 11 331 175 398 382 37 111
38 253 5 340 -58 147 -194 216 -338 171z"/>
<path d="M6947 15686 c-62 -17 -116 -61 -147 -122 -33 -64 -40 -194 -15 -280
53 -181 193 -348 355 -422 41 -19 77 -26 140 -29 78 -4 90 -2 140 24 293 150
74 726 -315 828 -70 18 -94 18 -158 1z"/>
<path d="M9902 14644 c-47 -24 -75 -69 -80 -128 -3 -46 1 -61 51 -158 69 -134
87 -206 63 -243 -47 -71 -282 -200 -500 -275 -324 -110 -766 -191 -1271 -231
-310 -25 -945 -11 -1008 23 -27 14 -64 102 -86 201 -30 138 -74 187 -166 187
-52 0 -77 -10 -118 -48 -43 -41 -51 -88 -31 -185 35 -175 102 -316 182 -387
104 -92 207 -110 685 -117 467 -7 809 17 1229 88 713 120 1270 370 1384 622
37 82 39 195 5 307 -35 116 -128 296 -168 327 -44 34 -123 41 -171 17z"/>
<path d="M5740 3517 c-144 -41 -217 -154 -208 -326 7 -131 59 -219 161 -273
60 -32 194 -32 254 0 103 55 154 142 161 277 4 80 1 96 -21 146 -49 111 -133
173 -248 184 -30 3 -74 -1 -99 -8z"/>
<path d="M7327 3520 c-124 -31 -205 -139 -215 -285 -13 -209 123 -358 313
-342 106 8 181 61 232 165 25 50 28 68 28 152 0 109 -18 160 -79 228 -62 68
-187 105 -279 82z"/>
<path d="M4283 859 c-75 -22 -54 -89 28 -89 31 0 47 6 70 29 16 16 29 39 29
50 0 18 -6 21 -47 20 -27 0 -63 -5 -80 -10z"/>
<path d="M5448 1034 c-27 -14 -48 -42 -48 -63 0 -7 38 -11 106 -11 105 0 105
0 99 23 -17 59 -95 85 -157 51z"/>
<path d="M9348 1014 c-78 -42 -76 -178 2 -219 82 -42 170 14 170 110 0 96 -91
154 -172 109z"/>
<path d="M11553 859 c-75 -22 -54 -89 28 -89 31 0 47 6 70 29 16 16 29 39 29
50 0 18 -6 21 -47 20 -27 0 -63 -5 -80 -10z"/>
</g>
</svg>
